<svg width="196" height="259" viewBox="0 0 196 259" fill="none" xmlns="http://www.w3.org/2000/svg">
<path d="M151.371 205.462L22.218 76.3088L44.3585 54.5372L173.512 183.69L151.371 205.462ZM127.201 194.392L101.001 217.086L44.174 166.9C41.178 164.29 37.6944 162.299 33.9244 161.043C30.1544 159.787 26.1728 159.29 22.2097 159.582C18.2467 159.873 14.3807 160.947 10.8352 162.742C7.28972 164.537 4.13505 167.016 1.55349 170.037V170.037L101.001 256.754L146.759 216.901C141.813 215.19 137.404 212.21 133.972 208.259C130.54 204.309 128.205 199.527 127.201 194.392ZM94.7283 2.69147L48.9711 42.5444C53.9873 44.3025 58.4438 47.3664 61.8816 51.4203C65.3193 55.4742 67.6138 60.3715 68.5286 65.6075L94.7283 42.9134L151.556 93.0987C154.552 95.7092 158.035 97.7001 161.805 98.9564C165.575 100.213 169.557 100.709 173.52 100.418C177.483 100.126 181.349 99.0518 184.894 97.2572C188.44 95.4626 191.595 92.9831 194.176 89.9621V89.9621L94.7283 2.69147Z" fill="white"/>
<path d="M156.537 210.998C168.561 210.998 178.309 201.168 178.309 189.042C178.309 176.916 168.561 167.086 156.537 167.086C144.513 167.086 134.766 176.916 134.766 189.042C134.766 201.168 144.513 210.998 156.537 210.998Z" fill="white"/>
<path d="M39.1927 92.9143C51.2168 92.9143 60.9642 83.0842 60.9642 70.9582C60.9642 58.8323 51.2168 49.0022 39.1927 49.0022C27.1686 49.0022 17.4212 58.8323 17.4212 70.9582C17.4212 83.0842 27.1686 92.9143 39.1927 92.9143Z" fill="white"/>
</svg>
