<?xml version="1.0" encoding="UTF-8"?>
<svg version="1.1" viewBox="0 0 1600 1600" width="1280" height="1280" xmlns="http://www.w3.org/2000/svg">
<path transform="translate(489,332)" d="m0 0h240l398 2 5 1v328l-2 2-5 1h-113l-10-1-2-7-1-32-1-55v-103l-2-1-26-1-371-1 1 194 1 2 36 12 68 25 32 13 39 15 74 28 31 11 76 30 25 11 40 15 18 8 19 10 12 8 13 10 10 9 9 10 9 13 8 15 6 16 3 17 2 27v88l-2 22-5 23-7 19-8 14-8 12-8 10-20 20-8 7-16 13-19 14-23 16-24 16-16 11-28 20-18 13-19 13-14 10-14 9-7 5-1 12-1 45-2 34-3 14-6 12-8 10-7 6-12 5-15 4-6 1h-17l-17-3-14-7-9-8-6-9-6-15-3-17-1-14v-63l-4-5-28-19-38-28-16-11-13-9-17-12-20-14-18-13-20-15-11-8-17-14-10-9-17-17-9-11-9-13-8-13-7-21-3-18-2-30-1-31v-38l1-37 1-7 1-1 29 1 21 1 76 1 3 2 2 7 1 101 3 14 3 6 13 10 16 11 20 14 13 10 14 10 19 13 19 14 21 14 17 12 19 14 20 15 5-1 14-10 9-7 17-12 13-10 17-12 39-26 22-15 16-12 13-10 11-9 17-13 5-7 4-14 1-7v-44l-3-19-4-9-4-5-16-8-32-15-30-13-39-16-45-17-74-29-47-18-30-12-37-15-24-10-54-22-18-8-16-9-18-12-11-10-10-14-6-11-5-8-6-17-3-24-1-18-1-33-1-56v-230l1-2z" fill="#FCFCFC"/>
<path transform="translate(466,133)" d="m0 0 636 1 30 1v120l-1 8-6 2h-274l-262 1h-121l-2-3-1-6-1-38 1-84z" fill="#FCFCFC"/>
</svg>
